<svg width="22" height="16" viewBox="0 0 22 16" fill="none" xmlns="http://www.w3.org/2000/svg">
<path fill-rule="evenodd" clip-rule="evenodd" d="M1 8C1 7.79375 1.07525 7.59595 1.2092 7.4501C1.34314 7.30426 1.52481 7.22233 1.71424 7.22233L18.5603 7.22233L14.0649 2.32924C13.9308 2.18322 13.8554 1.98516 13.8554 1.77865C13.8554 1.57214 13.9308 1.37409 14.0649 1.22806C14.199 1.08204 14.3809 1 14.5706 1C14.7602 1 14.9421 1.08204 15.0762 1.22806L20.7902 7.44941C20.8567 7.52165 20.9095 7.60747 20.9455 7.70195C20.9815 7.79642 21 7.89771 21 8C21 8.10229 20.9815 8.20358 20.9455 8.29805C20.9095 8.39253 20.8567 8.47835 20.7902 8.55059L15.0762 14.7719C15.0098 14.8442 14.931 14.9016 14.8442 14.9407C14.7575 14.9799 14.6645 15 14.5706 15C14.3809 15 14.199 14.918 14.0649 14.7719C13.9308 14.6259 13.8554 14.4279 13.8554 14.2213C13.8554 14.0148 13.9308 13.8168 14.0649 13.6708L18.5603 8.77767H1.71424C1.52481 8.77767 1.34314 8.69573 1.2092 8.54989C1.07525 8.40405 1 8.20625 1 8Z" fill="white" stroke="white"/>
</svg>
