<svg width="22" height="16" viewBox="0 0 22 16" fill="none" xmlns="http://www.w3.org/2000/svg">
<path fill-rule="evenodd" clip-rule="evenodd" d="M21 8C21 7.79375 20.9247 7.59595 20.7908 7.4501C20.6569 7.30426 20.4752 7.22233 20.2858 7.22233L3.43969 7.22233L7.93512 2.32924C8.06923 2.18322 8.14458 1.98516 8.14458 1.77865C8.14458 1.57214 8.06923 1.37409 7.93512 1.22806C7.801 1.08204 7.6191 1 7.42944 1C7.23977 1 7.05787 1.08204 6.92376 1.22806L1.20983 7.44941C1.14332 7.52165 1.09055 7.60747 1.05454 7.70195C1.01853 7.79642 1 7.89771 1 8C1 8.10229 1.01853 8.20358 1.05454 8.29805C1.09055 8.39253 1.14332 8.47835 1.20983 8.55059L6.92376 14.7719C6.99016 14.8442 7.069 14.9016 7.15576 14.9407C7.24253 14.9799 7.33552 15 7.42944 15C7.6191 15 7.801 14.918 7.93512 14.7719C8.06923 14.6259 8.14458 14.4279 8.14458 14.2213C8.14458 14.0148 8.06923 13.8168 7.93512 13.6708L3.43969 8.77767H20.2858C20.4752 8.77767 20.6569 8.69573 20.7908 8.54989C20.9247 8.40405 21 8.20625 21 8Z" fill="white" stroke="white"/>
</svg>
