<svg width="108" height="108" viewBox="0 0 108 108" fill="none" xmlns="http://www.w3.org/2000/svg">
<g id="Explore Tag">
<path id="Vector" d="M105.244 58.517C104.011 57.0599 104.011 54.9617 105.361 53.5629C107.357 51.5812 108.355 48.9584 107.885 46.394C107.474 44.0043 105.89 42.081 103.718 40.857C102.074 39.9244 101.311 37.8845 102.133 36.1943C103.307 33.6298 103.366 30.8904 102.015 28.5591C100.783 26.4609 98.6696 25.1786 96.2043 24.7706C94.3259 24.4209 92.9172 22.789 93.0933 20.9239C93.3281 18.1263 92.3889 15.5035 90.3344 13.8133C88.4561 12.2396 85.932 11.7733 83.408 12.2396C81.5883 12.5893 79.8274 11.4236 79.2991 9.67512C78.536 6.99406 76.775 4.83756 74.3097 3.90502C72.0205 3.08904 69.5551 3.43875 67.3833 4.72099C65.7397 5.65354 63.6266 5.30383 62.5113 3.73017C60.8677 1.4571 58.4611 0 55.8197 0C53.413 0 51.1825 1.16568 49.5976 3.08905C48.3649 4.54614 46.2518 4.89584 44.6669 3.84674C42.319 2.27307 39.6189 1.74852 37.0948 2.62277C34.8056 3.43875 33.162 5.30383 32.2815 7.63519C31.6358 9.44199 29.7575 10.4911 27.9378 10.0248C25.2377 9.32542 22.4789 9.73341 20.4244 11.4819C18.5461 13.0556 17.6069 15.4452 17.6656 17.9514C17.7243 19.8165 16.2568 21.3319 14.3785 21.5067C11.5609 21.7982 9.15428 23.1387 7.80422 25.4118C6.57155 27.51 6.51285 29.9579 7.39333 32.2893C8.03901 34.0961 7.33463 36.0777 5.57367 36.8937C3.04963 38.1176 1.22998 40.2159 0.760387 42.8386C0.349497 45.2283 1.11258 47.5596 2.75614 49.483C3.98881 50.9401 3.98881 53.0383 2.63874 54.4371C0.64299 56.4188 -0.354886 59.0416 0.114703 61.606C0.525593 63.9957 2.11045 65.9191 4.2823 67.143C5.92586 68.0756 6.68894 70.1155 5.86716 71.8057C4.69319 74.3702 4.63449 77.1096 5.98456 79.4409C7.21723 81.5391 9.33038 82.8214 11.7957 83.2294C13.6741 83.5791 15.0828 85.211 14.9067 87.0761C14.672 89.8737 15.6111 92.4965 17.6656 94.1867C19.5439 95.7604 22.068 96.2267 24.592 95.7604C26.4117 95.4107 28.1726 96.5764 28.7009 98.3249C29.464 101.006 31.225 103.162 33.6903 104.095C35.9795 104.911 38.4449 104.561 40.6167 103.279C42.2603 102.346 44.3734 102.696 45.4887 104.27C47.1323 106.543 49.5389 108 52.1803 108C54.587 108 56.8175 106.834 58.4024 104.911C59.6351 103.454 61.7482 103.104 63.3331 104.153C65.681 105.727 68.3812 106.251 70.9052 105.377C73.1944 104.561 74.838 102.696 75.7185 100.365C76.3642 98.558 78.2425 97.5089 80.0622 97.9752C82.7623 98.6746 85.5211 98.2666 87.5756 96.5181C89.4539 94.9444 90.3931 92.5548 90.3344 90.0486C90.2757 88.1835 91.7432 86.6681 93.6215 86.4933C96.4391 86.2018 98.8457 84.8613 100.196 82.5882C101.428 80.49 101.487 78.0421 100.607 75.7107C99.961 73.9039 100.665 71.9223 102.426 71.1063C104.95 69.8824 106.77 67.7841 107.24 65.2196C107.651 62.83 106.887 60.4404 105.244 58.517Z" fill="url(#paint0_linear_13_4475)"/>
<g id="text">
<path id="XMLID_167_" d="M31.744 19.5475L35.1993 17.5381L35.8316 18.6218L33.5507 19.9313L34.3637 21.3536L36.2833 20.2473L36.893 21.3085L34.9734 22.4148L35.809 23.8597L38.1577 22.4825L38.79 23.5662L35.2896 25.6433L31.744 19.5475Z" fill="white"/>
<path id="XMLID_165_" d="M41.8161 19.7956L41.116 22.5726L39.6255 23.1144L40.6869 18.9377L37.322 16.4542L38.8125 15.9123L41.0257 17.5605L41.7032 14.8963L43.1937 14.3545L42.1775 18.4184L45.6327 20.9922L44.1422 21.534L41.8161 19.7956Z" fill="white"/>
<path id="XMLID_162_" d="M45.6554 13.8124L48.117 13.4512C49.6301 13.2254 50.7592 14.0382 50.9625 15.4606C51.1657 16.8829 50.3302 17.9666 48.8171 18.1924L47.6879 18.3504L48.0041 20.5856L46.6491 20.7888L45.6554 13.8124ZM48.5009 16.9732C49.2236 16.8604 49.6978 16.4765 49.5849 15.6638C49.472 14.851 48.9074 14.6026 48.1622 14.7155L47.1685 14.851L47.5072 17.1087L48.5009 16.9732Z" fill="white"/>
<path id="XMLID_160_" d="M53.1758 13L54.5308 13.0452L54.3727 18.8475L57.1279 18.9152L57.0827 20.157L52.9725 20.0441L53.1758 13Z" fill="white"/>
<path id="XMLID_157_" d="M58.5505 16.6574C59.0248 14.5352 60.9444 13.4741 62.8639 13.903C64.7835 14.332 66.0934 16.1156 65.6417 18.2378C65.1674 20.3601 63.2253 21.4212 61.3057 20.9923C59.3861 20.5633 58.0763 18.7797 58.5505 16.6574ZM61.5767 19.7279C62.751 19.9989 63.9479 19.3215 64.2641 17.9218C64.5803 16.522 63.7673 15.4157 62.5929 15.1673C61.4186 14.919 60.2217 15.5737 59.9055 16.9735C59.5893 18.3733 60.4024 19.457 61.5767 19.7279Z" fill="white"/>
<path id="XMLID_154_" d="M69.3002 21.1504L68.3517 20.6988L67.3581 22.7985L66.116 22.2115L69.1196 15.8447L71.3553 16.9059C72.7103 17.538 73.2072 18.8249 72.5974 20.1344C72.1683 21.0601 71.4005 21.5116 70.5197 21.4664L70.9262 24.4918L69.6164 23.8822L69.3002 21.1504ZM69.7293 20.0441C70.4068 20.3602 70.994 20.2924 71.3553 19.5474C71.6941 18.8023 71.3779 18.3056 70.7004 17.9896L69.8196 17.5832L68.8486 19.6377L69.7293 20.0441Z" fill="white"/>
<path id="XMLID_152_" d="M76.143 19.4795L79.395 21.8049L78.6724 22.8209L76.5269 21.2857L75.5784 22.6177L77.3851 23.9046L76.6624 24.898L74.8558 23.6111L73.8847 24.9883L76.0978 26.5687L75.3752 27.5847L72.0554 25.2141L76.143 19.4795Z" fill="white"/>
<path id="XMLID_149_" d="M86.2831 28.7813L82.5117 35.3287L81.5858 34.1773L82.2858 33.0033L80.3888 30.6778L79.1016 31.1068L78.1757 29.9553L85.3572 27.675L86.2831 28.7813ZM82.9633 31.897L84.499 29.3006L81.6535 30.2714L82.9633 31.897Z" fill="white"/>
<path id="XMLID_147_" d="M89.0834 32.8904L89.7609 34.0644L83.6633 37.609L82.9858 36.435L89.0834 32.8904Z" fill="white"/>
<path id="XMLID_145_" d="M88.9929 40.3408C91.0932 39.7312 92.945 40.9504 93.487 42.8469C93.758 43.75 93.7355 44.9691 92.8095 46.0077L91.8836 45.2401C92.3805 44.6079 92.4708 43.908 92.2675 43.2081C91.9288 41.9889 90.777 41.2439 89.3994 41.6503C88.0219 42.0567 87.3895 43.2758 87.7509 44.495C87.9993 45.3304 88.5865 45.9625 89.7156 45.8722L89.2414 44.2467L90.348 43.9306L91.1835 46.8205C88.9252 47.7913 87.0734 46.6624 86.5539 44.7885C85.9668 42.9372 86.8927 40.9504 88.9929 40.3408Z" fill="white"/>
<path id="XMLID_143_" d="M94.6388 48.7849L94.955 52.7585L93.7129 52.8488L93.5096 50.2299L91.8836 50.3653L92.0643 52.5779L90.8448 52.6682L90.6641 50.4556L88.9929 50.5911L89.1962 53.3003L87.9541 53.3907L87.6379 49.3268L94.6388 48.7849Z" fill="white"/>
<path id="XMLID_141_" d="M95.0001 55.5351L94.842 56.8897L89.693 59.5764V59.6215L94.4807 60.1634L94.3226 61.518L87.3218 60.7278L87.4799 59.3732L92.6289 56.6865V56.6414L87.8412 56.0995L87.9993 54.7449L95.0001 55.5351Z" fill="white"/>
<path id="XMLID_139_" d="M93.6452 64.2951L92.4482 68.1107L91.2513 67.7268L92.0417 65.2208L90.4835 64.7241L89.8286 66.8463L88.6542 66.4851L89.3091 64.3628L87.7057 63.8661L86.8927 66.4625L85.6958 66.0787L86.9153 62.1729L93.6452 64.2951Z" fill="white"/>
<path id="XMLID_136_" d="M86.1474 70.5941L86.6442 69.6685L84.5666 68.5848L85.1989 67.3882L91.4545 70.6619L90.3027 72.8519C89.6027 74.1839 88.2928 74.6129 87.0282 73.9581C86.1248 73.484 85.6957 72.7164 85.7635 71.8359L82.7373 72.1068L83.4148 70.8199L86.1474 70.5941ZM87.2314 71.0683C86.8927 71.723 86.9378 72.3326 87.6605 72.7164C88.3832 73.1002 88.9026 72.8067 89.2639 72.1294L89.7156 71.2715L87.6831 70.2103L87.2314 71.0683Z" fill="white"/>
<path id="XMLID_133_" d="M85.1764 80.4604L77.9949 78.0898L78.9208 76.961L80.2081 77.4125L82.1051 75.0871L81.4276 73.913L82.3535 72.7842L86.0797 79.3541L85.1764 80.4604ZM81.4727 77.8415L84.3182 78.8349L82.7826 76.2385L81.4727 77.8415Z" fill="white"/>
<path id="XMLID_131_" d="M80.592 83.3954L81.8793 82.2665L82.7148 83.2147L79.1241 86.353L78.3111 85.4047L79.5983 84.2759L75.7817 79.9185L76.798 79.0154L80.592 83.3954Z" fill="white"/>
<path id="XMLID_128_" d="M75.7818 84.5694C76.8658 86.4433 76.1431 88.5429 74.4493 89.5138C72.733 90.4846 70.565 90.0556 69.481 88.1817C68.397 86.3078 69.1197 84.2081 70.8134 83.2147C72.5298 82.2665 74.6978 82.6954 75.7818 84.5694ZM71.4683 84.3662C70.4069 84.9757 69.9778 86.2626 70.7005 87.5044C71.4232 88.7461 72.7556 89.0171 73.7944 88.4075C74.8333 87.7979 75.2849 86.511 74.5623 85.2692C73.8622 84.0275 72.5072 83.7566 71.4683 84.3662Z" fill="white"/>
<path id="XMLID_125_" d="M64.8061 88.5206L65.8223 88.2045L65.1448 85.9694L66.4547 85.563L68.5324 92.291L66.1611 93.0135C64.7383 93.465 63.4963 92.8328 63.0672 91.4556C62.7736 90.4848 63.022 89.6495 63.6995 89.0625L61.3734 87.0982L62.751 86.6693L64.8061 88.5206ZM65.2352 89.6269C64.5125 89.8527 64.1286 90.3042 64.377 91.0944C64.6254 91.862 65.19 92.0426 65.9127 91.8169L66.8386 91.5234L66.1611 89.3334L65.2352 89.6269Z" fill="white"/>
<path id="XMLID_123_" d="M57.5344 95.0002L56.1116 94.955L54.8695 90.2138L53.2209 94.8647L52.1369 94.8196L50.7819 90.0784L49.2462 94.7293L47.8235 94.6841L50.2399 87.7078L51.3013 87.7529L52.7467 92.5393L54.4856 87.8432L55.5696 87.8884L57.5344 95.0002Z" fill="white"/>
<path id="XMLID_121_" d="M45.2941 93.9618L43.9617 93.6457L45.5651 86.7822L46.8975 87.0983L45.2941 93.9618Z" fill="white"/>
<path id="XMLID_119_" d="M40.5967 91.32L42.1776 91.9296L41.7259 93.1036L37.277 91.4329L37.7286 90.2589L39.3095 90.8685L41.3646 85.45L42.6292 85.9241L40.5967 91.32Z" fill="white"/>
<path id="XMLID_117_" d="M33.5057 84.5244L35.9673 86.0371L37.4804 83.5762L38.6321 84.2987L34.9284 90.3042L33.7767 89.5817L35.3123 87.0982L32.8508 85.5856L31.3151 88.0691L30.1633 87.3466L33.867 81.3411L35.0188 82.0635L33.5057 84.5244Z" fill="white"/>
<path id="XMLID_114_" d="M22.8462 80.5057L26.324 73.8003L27.2951 74.9066L26.6628 76.1032L28.6501 78.3609L29.9148 77.8642L30.8859 78.9705L23.7947 81.612L22.8462 80.5057ZM26.0079 77.2772L24.5851 79.9413L27.408 78.8576L26.0079 77.2772Z" fill="white"/>
<path id="XMLID_112_" d="M19.8427 76.532L19.12 75.3806L25.0594 71.5876L25.7821 72.7391L19.8427 76.532Z" fill="white"/>
<path id="XMLID_109_" d="M16.184 69.6913L21.5588 64.363L22.146 65.7177L21.1749 66.6659L22.3718 69.4203L23.7268 69.33L24.314 70.6846L16.7711 71.0233L16.184 69.6913ZM20.2038 67.569L18.0358 69.6687L21.0394 69.4881L20.2038 67.569Z" fill="white"/>
<path id="XMLID_106_" d="M18.5553 61.4052L18.7585 62.4437L21.0395 61.9696L21.3105 63.3016L14.3999 64.724L13.9031 62.3082C13.6095 60.8407 14.3322 59.6667 15.7549 59.3732C16.7486 59.17 17.5616 59.5087 18.081 60.2311L20.2716 58.1089L20.5652 59.5313L18.5553 61.4052ZM17.4035 61.7212C17.2454 60.9988 16.8389 60.5698 16.0259 60.7278C15.2355 60.8859 15.0097 61.4503 15.1678 62.1728L15.371 63.121L17.6068 62.6695L17.4035 61.7212Z" fill="white"/>
<path id="XMLID_104_" d="M14.3549 56.0092L14.4226 57.7025L13.1805 57.7477L12.9999 52.9839L14.242 52.9387L14.3097 54.632L20.1137 54.4288L20.1588 55.7834L14.3549 56.0092Z" fill="white"/>
<path id="XMLID_102_" d="M13.1805 50.7265L13.316 49.3718L20.3395 50.0266L20.204 51.3812L13.1805 50.7265Z" fill="white"/>
<path id="XMLID_100_" d="M18.8038 48.3332L18.5554 47.1366C19.1425 47.0689 19.7071 46.7302 19.8652 46.0529C20.0007 45.511 19.82 44.9918 19.2103 44.8337C18.7134 44.7208 18.4199 44.9692 17.9682 45.6013L17.6972 46.0077C17.11 46.8657 16.4099 47.5204 15.3485 47.2721C14.1968 47.0011 13.6999 45.8723 13.9709 44.7208C14.2419 43.5468 15.1453 42.9824 15.9357 42.8469L16.2519 43.9532C15.6421 44.1112 15.2808 44.4273 15.1678 44.924C15.0549 45.4207 15.213 45.8497 15.6647 45.94C16.026 46.0303 16.3422 45.8948 16.8164 45.195L17.11 44.766C17.8779 43.6823 18.5554 43.2082 19.5264 43.4339C20.9266 43.75 21.3105 45.1272 21.0395 46.2787C20.8137 47.4978 19.8652 48.3106 18.8038 48.3332Z" fill="white"/>
<path id="XMLID_98_" d="M17.0649 39.4152L16.4099 40.9956L15.2582 40.5214L17.0874 36.1189L18.2392 36.593L17.5843 38.1734L22.9365 40.386L22.4171 41.6503L17.0649 39.4152Z" fill="white"/>
<path id="XMLID_95_" d="M23.5237 34.3807L22.9591 35.2612L24.9238 36.5256L24.1786 37.677L18.2617 33.8389L19.6167 31.7618C20.4297 30.4975 21.7847 30.1814 22.9817 30.9716C23.8398 31.5134 24.1786 32.3262 24.0205 33.2067L27.0692 33.2293L26.2788 34.4485L23.5237 34.3807ZM22.4848 33.7937C22.8913 33.1616 22.8913 32.5746 22.2138 32.123C21.5363 31.6715 20.9717 31.9198 20.5652 32.552L20.0458 33.3648L21.9654 34.6065L22.4848 33.7937Z" fill="white"/>
<path id="XMLID_93_" d="M26.9112 29.1875L22.0784 28.1264L23.1398 27.0201L26.437 27.8329L25.4659 24.5592L26.5273 23.4529L27.8371 28.2167L29.8922 30.1583L28.9437 31.1517L26.9112 29.1875Z" fill="white"/>
</g>
<circle id="Ellipse" cx="54" cy="54" r="30" fill="white"/>
<path id="Vector_2" d="M45 63L63 45M63 45V58.5M63 45H49.5" stroke="url(#paint1_linear_13_4475)" stroke-width="3.5" stroke-linecap="round" stroke-linejoin="round"/>
</g>
<defs>
<linearGradient id="paint0_linear_13_4475" x1="2.46126e-07" y1="53.0847" x2="108" y2="53.0847" gradientUnits="userSpaceOnUse">
<stop stop-color="#8A35F2"/>
<stop offset="1" stop-color="#BC4BDF"/>
</linearGradient>
<linearGradient id="paint1_linear_13_4475" x1="45" y1="53.8475" x2="63" y2="53.8475" gradientUnits="userSpaceOnUse">
<stop stop-color="#8A35F2"/>
<stop offset="1" stop-color="#BC4BDF"/>
</linearGradient>
</defs>
</svg>
