<svg width="16" height="16" viewBox="0 0 16 16" fill="none" xmlns="http://www.w3.org/2000/svg">
<g id="icon">
<circle id="Ellipse" cx="8" cy="8" r="7" stroke="url(#paint0_linear_13_4311)" stroke-width="2"/>
<path id="Vector" d="M8.66791 6.23166L7.50824 5.36096C6.9809 4.96502 6.22791 5.34128 6.22791 6.00071V9.99861C6.22791 10.658 6.9809 11.0343 7.50824 10.6384L8.66791 9.76766L10.1733 8.63992C10.6004 8.31993 10.6004 7.67938 10.1733 7.3594L8.66791 6.23166ZM8.66791 6.23166L7.50824 5.36096C6.9809 4.96502 6.22791 5.34128 6.22791 6.00071V9.99861C6.22791 10.658 6.9809 11.0343 7.50824 10.6384L8.66791 9.76766L10.1733 8.63992C10.6004 8.31993 10.6004 7.67938 10.1733 7.3594L8.66791 6.23166ZM8.66791 6.23166L7.50824 5.36096C6.9809 4.96502 6.22791 5.34128 6.22791 6.00071V9.99861C6.22791 10.658 6.9809 11.0343 7.50824 10.6384L8.66791 9.76766L10.1733 8.63992C10.6004 8.31993 10.6004 7.67938 10.1733 7.3594L8.66791 6.23166Z" fill="url(#paint1_linear_13_4311)"/>
</g>
<defs>
<linearGradient id="paint0_linear_13_4311" x1="3.64631e-08" y1="7.8644" x2="16" y2="7.8644" gradientUnits="userSpaceOnUse">
<stop stop-color="#8A35F2"/>
<stop offset="1" stop-color="#BC4BDF"/>
</linearGradient>
<linearGradient id="paint1_linear_13_4311" x1="6.22791" y1="7.93864" x2="11.0279" y2="7.93864" gradientUnits="userSpaceOnUse">
<stop stop-color="#8A35F2"/>
<stop offset="1" stop-color="#BC4BDF"/>
</linearGradient>
</defs>
</svg>
