<svg width="27" height="27" viewBox="0 0 27 27" fill="none" xmlns="http://www.w3.org/2000/svg">
<g id="icon">
<path id="Vector" d="M11.3791 18.0144C11.1117 17.9939 10.8629 17.8693 10.6861 17.6672L6.528 13.5007C6.43536 13.3064 6.40513 13.088 6.44149 12.8757C6.47784 12.6634 6.57898 12.4676 6.73099 12.3153C6.88299 12.163 7.07838 12.0616 7.29026 12.0252C7.50213 11.9888 7.72006 12.0191 7.91404 12.1119L11.3375 15.5423L23.1604 3.77894C23.3544 3.68611 23.5723 3.65582 23.7842 3.69225C23.9961 3.72867 24.1915 3.83002 24.3435 3.98233C24.4955 4.13464 24.5966 4.33043 24.633 4.54273C24.6693 4.75503 24.6391 4.9734 24.5465 5.16777L12.0721 17.6672C11.8953 17.8693 11.6466 17.9939 11.3791 18.0144Z" fill="url(#paint0_linear_37_277)" stroke="url(#paint1_linear_37_277)"/>
<path id="Vector_2" d="M13.4582 26C11.2287 25.9964 9.04096 25.3942 7.12255 24.256C5.20415 23.1177 3.62523 21.4851 2.55013 19.5281C1.7329 18.0698 1.22782 16.4569 1.06707 14.7922C0.813398 12.3507 1.28275 9.88848 2.41658 7.71259C3.5504 5.53669 5.29851 3.74347 7.44283 2.55662C8.8982 1.73775 10.5079 1.23165 12.1692 1.07058C13.8243 0.892181 15.4984 1.05284 17.0896 1.54278C17.2316 1.57121 17.3662 1.62906 17.4846 1.71262C17.603 1.79618 17.7026 1.9036 17.7772 2.02801C17.8517 2.15241 17.8995 2.29106 17.9175 2.43504C17.9354 2.57903 17.9232 2.72519 17.8815 2.86416C17.8398 3.00312 17.7695 3.13182 17.6753 3.242C17.5811 3.35219 17.4649 3.44143 17.3342 3.504C17.2036 3.56658 17.0613 3.60111 16.9166 3.60538C16.7718 3.60965 16.6278 3.58357 16.4936 3.5288C15.1473 3.12315 13.7336 2.99094 12.3355 3.13993C10.9537 3.28171 9.61469 3.70217 8.3992 4.37598C7.22818 5.02332 6.19283 5.89099 5.34992 6.93142C4.48207 7.99132 3.834 9.21408 3.44369 10.5281C3.05337 11.8421 2.92865 13.2209 3.07682 14.5839C3.21832 15.9685 3.63793 17.3102 4.31039 18.5281C4.95643 19.7015 5.82236 20.7389 6.8607 21.5835C7.91846 22.4531 9.13877 23.1025 10.4501 23.4936C11.7615 23.8847 13.1376 24.0097 14.4978 23.8612C15.8796 23.7194 17.2186 23.299 18.4341 22.6252C19.6051 21.9778 20.6405 21.1101 21.4834 20.0697C22.3512 19.0098 22.9993 17.7871 23.3896 16.4731C23.7799 15.159 23.9046 13.7802 23.7565 12.4173C23.7289 12.1281 23.8171 11.8399 24.0016 11.6159C24.1862 11.3919 24.452 11.2505 24.7406 11.2229C25.0291 11.1953 25.3168 11.2836 25.5404 11.4686C25.7639 11.6535 25.905 11.9198 25.9325 12.209C26.1849 14.6519 25.7135 17.1151 24.5771 19.2912C23.4408 21.4672 21.6898 23.2596 19.5429 24.4445C18.0721 25.2969 16.4376 25.8271 14.7472 26H13.4582Z" fill="url(#paint2_linear_37_277)" stroke="url(#paint3_linear_37_277)"/>
</g>
<defs>
<linearGradient id="paint0_linear_37_277" x1="6.42651" y1="10.7243" x2="24.648" y2="10.7243" gradientUnits="userSpaceOnUse">
<stop stop-color="#8A35F2"/>
<stop offset="1" stop-color="#BC4BDF"/>
</linearGradient>
<linearGradient id="paint1_linear_37_277" x1="6.42651" y1="10.7243" x2="24.648" y2="10.7243" gradientUnits="userSpaceOnUse">
<stop stop-color="#8A35F2"/>
<stop offset="1" stop-color="#BC4BDF"/>
</linearGradient>
<linearGradient id="paint2_linear_37_277" x1="1" y1="13.2881" x2="25.9989" y2="13.2881" gradientUnits="userSpaceOnUse">
<stop stop-color="#8A35F2"/>
<stop offset="1" stop-color="#BC4BDF"/>
</linearGradient>
<linearGradient id="paint3_linear_37_277" x1="1" y1="13.2881" x2="25.9989" y2="13.2881" gradientUnits="userSpaceOnUse">
<stop stop-color="#8A35F2"/>
<stop offset="1" stop-color="#BC4BDF"/>
</linearGradient>
</defs>
</svg>
