<svg width="120" height="120" viewBox="0 0 120 120" fill="none" xmlns="http://www.w3.org/2000/svg">
<g id="tag">
<path id="bg" d="M120 80L40 0H0L120 120V80Z" fill="url(#paint0_linear_37_419)"/>
<g id="text">
<path d="M30.5734 19.1951L31.5493 14.6151L29.8357 12.9606L26.976 15.7218L26 14.7795L34.0573 7L36.6561 9.50915C38.3583 11.1527 38.3129 13.2126 36.7809 14.6918C35.578 15.8533 34.0573 16.0943 32.6388 15.3821L31.6401 20.2251L30.5734 19.1951ZM30.6982 12.1279L32.2075 13.5852C33.3424 14.6809 34.6474 14.8233 35.7822 13.7276C36.9171 12.6319 36.7696 11.3718 35.6347 10.2761L34.1254 8.81886L30.6982 12.1279Z" fill="white"/>
<path d="M34.9719 23.6611C33.3831 22.1272 33.0427 19.6728 35.006 17.7772C36.9919 15.8598 39.5226 16.2213 41.0092 17.6567C42.5072 19.103 42.9952 21.656 40.4191 23.6831L35.562 18.9935C34.4726 20.3302 34.7563 21.8751 35.8911 22.9708C36.5834 23.6392 37.4685 24.0118 38.3651 23.9789L38.3537 24.9102C37.1621 25.0308 35.9252 24.5815 34.9719 23.6611ZM36.2883 18.2922L40.3056 22.171C41.4518 20.9328 41.1794 19.4208 40.1921 18.4675C39.2162 17.5252 37.6728 17.2403 36.2883 18.2922Z" fill="white"/>
<path d="M41.5778 30.0392C40.0458 28.56 39.6032 26.029 41.5778 24.1224C43.5524 22.2159 46.1738 22.6433 47.7059 24.1224C48.7272 25.1086 49.2038 26.5111 48.7726 27.9574L47.6151 27.6725C47.8761 26.6973 47.581 25.6893 46.8434 24.9771C45.7767 23.9471 43.9269 23.6951 42.531 25.0428C41.1352 26.3905 41.3962 28.1765 42.4629 29.2065C43.2006 29.9187 44.2446 30.2036 45.2546 29.9516L45.5497 31.0692C44.0631 31.4746 42.5991 31.0254 41.5778 30.0392Z" fill="white"/>
<path d="M47.8393 36.0848C46.3073 34.6056 45.8647 32.0746 47.8393 30.1681C49.8139 28.2615 52.4354 28.6889 53.9674 30.1681C55.4994 31.6472 55.942 34.1783 53.9674 36.0848C51.9928 37.9913 49.3713 37.564 47.8393 36.0848ZM48.7926 31.0884C47.3967 32.4361 47.6237 34.1893 48.7131 35.2411C49.8026 36.293 51.6183 36.5122 53.0141 35.1644C54.41 33.8167 54.183 32.0636 53.0936 31.0117C52.0041 29.9599 50.1884 29.7407 48.7926 31.0884Z" fill="white"/>
<path d="M55.9806 43.7262L59.3851 40.4391C60.4632 39.3982 60.6334 38.2915 59.6915 37.3821C58.7382 36.4617 57.5126 36.5494 56.4345 37.5903L53.03 40.8774L52.0767 39.957L57.9779 34.2594L58.9311 35.1798L58.0119 36.0673C58.8403 35.8153 59.9071 35.9029 60.849 36.8124C61.6774 37.6122 61.9838 38.6312 61.5185 39.7598C62.4037 39.453 63.6293 39.4968 64.7188 40.5487C65.9444 41.732 66.0692 43.3646 64.3102 45.063L60.8376 48.4158L59.8844 47.4954L63.2889 44.2083C64.367 43.1674 64.5372 42.0608 63.5953 41.1513C62.642 40.2309 61.4164 40.3186 60.3383 41.3595L56.9338 44.6466L55.9806 43.7262Z" fill="white"/>
<path d="M66.0766 53.4741L69.4811 50.187C70.5592 49.1461 70.7294 48.0394 69.7875 47.13C68.8342 46.2096 67.6086 46.2973 66.5305 47.3382L63.126 50.6253L62.1728 49.7049L68.0739 44.0072L69.0271 44.9276L68.1079 45.8152C68.9364 45.5631 70.0031 45.6508 70.945 46.5602C71.7734 47.3601 72.0798 48.3791 71.6146 49.5077C72.4997 49.2009 73.7253 49.2447 74.8148 50.2966C76.0404 51.4799 76.1652 53.1125 74.4062 54.8108L70.9337 58.1637L69.9804 57.2433L73.3849 53.9562C74.463 52.9153 74.6332 51.8086 73.6913 50.8992C72.738 49.9788 71.5124 50.0665 70.4343 51.1074L67.0298 54.3945L66.0766 53.4741Z" fill="white"/>
<path d="M74.9016 62.2139C73.3128 60.6799 72.9724 58.2256 74.9356 56.33C76.9216 54.4125 79.4523 54.7741 80.9389 56.2095C82.4369 57.6558 82.9248 60.2088 80.3488 62.2358L75.4917 57.5462C74.4023 58.883 74.686 60.4279 75.8208 61.5236C76.513 62.192 77.3982 62.5645 78.2947 62.5317L78.2834 63.463C77.0918 63.5835 75.8548 63.1343 74.9016 62.2139ZM76.218 56.845L80.2353 60.7238C81.3815 59.4856 81.1091 57.9736 80.1218 57.0203C79.1458 56.078 77.6025 55.7931 76.218 56.845Z" fill="white"/>
<path d="M78.8406 65.798L84.7417 60.1003L85.695 61.0207L84.7304 61.9521C85.6042 61.7001 86.7617 61.8315 87.7831 62.8177C89.02 64.012 89.3151 65.787 87.5448 67.4963L84.0722 70.8491L83.1189 69.9288L86.4553 66.7074C87.6469 65.5569 87.5561 64.2859 86.6142 63.3765C85.6723 62.467 84.3218 62.3465 83.1303 63.497L79.7939 66.7184L78.8406 65.798Z" fill="white"/>
<path d="M91.2228 77.7532L90.2695 76.8328L91.3816 75.759L91.3476 75.7261C90.4397 76.0548 89.0098 75.8357 87.9091 74.7729C86.4792 73.3923 86.0593 70.9708 88.0793 69.0204C90.0993 67.0701 92.6073 67.4755 94.0371 68.8561C95.1379 69.9189 95.3649 71.2995 95.0244 72.176L95.0585 72.2089L98.3268 69.0533L99.2801 69.9737L91.2228 77.7532ZM89.0325 69.9408C87.5686 71.3543 87.8977 73.0745 88.9418 74.0826C90.0085 75.1125 91.8015 75.4193 93.2541 74.0168C94.7067 72.6143 94.3889 70.8831 93.3222 69.8532C92.2782 68.8451 90.4965 68.5274 89.0325 69.9408Z" fill="white"/>
<path d="M95.1933 81.806C93.6046 80.272 93.2641 77.8176 95.2274 75.9221C97.2133 74.0046 99.744 74.3662 101.231 75.8015C102.729 77.2479 103.217 79.8008 100.641 81.8279L95.7834 77.1383C94.694 78.475 94.9777 80.02 96.1126 81.1157C96.8048 81.784 97.69 82.1566 98.5865 82.1237L98.5751 83.0551C97.3836 83.1756 96.1466 82.7264 95.1933 81.806ZM96.5098 76.437L100.527 80.3158C101.673 79.0777 101.401 77.5656 100.414 76.6124C99.4376 75.6701 97.8942 75.3852 96.5098 76.437Z" fill="white"/>
<path d="M104.943 91L103.989 90.0796L105.102 89.0058L105.068 88.973C104.16 89.3017 102.73 89.0825 101.629 88.0197C100.199 86.6391 99.7792 84.2176 101.799 82.2673C103.819 80.3169 106.327 80.7223 107.757 82.1029C108.858 83.1657 109.085 84.5463 108.744 85.4229L108.778 85.4558L112.047 82.3001L113 83.2205L104.943 91ZM102.752 83.1877C101.289 84.6011 101.618 86.3214 102.662 87.3294C103.728 88.3594 105.521 88.6662 106.974 87.2637C108.427 85.8612 108.109 84.13 107.042 83.1C105.998 82.092 104.216 81.7742 102.752 83.1877Z" fill="white"/>
</g>
</g>
<defs>
<linearGradient id="paint0_linear_37_419" x1="2.73474e-07" y1="58.983" x2="120" y2="58.983" gradientUnits="userSpaceOnUse">
<stop stop-color="#8A35F2"/>
<stop offset="1" stop-color="#BC4BDF"/>
</linearGradient>
</defs>
</svg>
