<svg width="17" height="17" viewBox="0 0 17 17" fill="none" xmlns="http://www.w3.org/2000/svg">
<g id="icon">
<path id="Vector" d="M7.22784 11.2092C7.06738 11.1969 6.9181 11.1222 6.81201 11.0009L4.317 8.50087C4.26141 8.38424 4.24327 8.25321 4.26509 8.12582C4.2869 7.99844 4.34759 7.88096 4.4388 7.78957C4.53001 7.69817 4.64725 7.63736 4.77438 7.61551C4.90151 7.59365 5.03228 7.61183 5.14867 7.66753L7.20289 9.72589L14.297 2.66747C14.4134 2.61176 14.5442 2.59359 14.6713 2.61545C14.7985 2.6373 14.9157 2.69811 15.0069 2.78951C15.0981 2.8809 15.1588 2.99838 15.1806 3.12576C15.2024 3.25315 15.1843 3.38418 15.1287 3.50081L7.64368 11.0009C7.53758 11.1222 7.38831 11.1969 7.22784 11.2092Z" fill="url(#paint0_linear_37_273)" stroke="url(#paint1_linear_37_273)" stroke-width="0.5"/>
<path id="Vector_2" d="M8.47537 16.0009C7.1376 15.9987 5.82485 15.6373 4.67374 14.9544C3.52263 14.2714 2.57523 13.2918 1.93013 12.1175C1.43976 11.2425 1.1367 10.2747 1.04024 9.27578C0.888032 7.81083 1.16966 6.3334 1.84999 5.02779C2.53033 3.72217 3.57925 2.64618 4.86592 1.93403C5.73919 1.44267 6.70504 1.139 7.70191 1.04235C8.69505 0.935305 9.69954 1.0317 10.6543 1.32569C10.7396 1.34275 10.8203 1.37746 10.8913 1.4276C10.9624 1.47773 11.0222 1.54219 11.0669 1.61684C11.1116 1.69149 11.1403 1.77468 11.1511 1.86108C11.1618 1.94747 11.1545 2.03518 11.1295 2.11856C11.1044 2.20194 11.0623 2.27916 11.0058 2.34528C10.9492 2.41139 10.8795 2.46494 10.8011 2.50249C10.7227 2.54004 10.6373 2.56075 10.5505 2.56332C10.4636 2.56588 10.3772 2.55023 10.2967 2.51737C9.48884 2.27397 8.64059 2.19464 7.80171 2.28403C6.97254 2.36911 6.16911 2.62139 5.43977 3.02571C4.73712 3.41413 4.11588 3.93477 3.6101 4.55906C3.08936 5.19503 2.7005 5.92873 2.4663 6.71718C2.23209 7.50563 2.15726 8.33299 2.24616 9.15078C2.33107 9.98163 2.58285 10.7867 2.98635 11.5175C3.37399 12.2215 3.89358 12.844 4.51662 13.3508C5.15132 13.8726 5.88354 14.2623 6.67041 14.4969C7.45728 14.7316 8.28297 14.8066 9.09912 14.7175C9.9283 14.6324 10.7317 14.3802 11.4611 13.9758C12.1637 13.5874 12.785 13.0668 13.2907 12.4425C13.8115 11.8065 14.2003 11.0728 14.4345 10.2844C14.6687 9.49591 14.7436 8.66856 14.6547 7.85077C14.6381 7.67727 14.691 7.50429 14.8018 7.36989C14.9125 7.23549 15.072 7.15067 15.2452 7.13409C15.4183 7.11751 15.5909 7.17054 15.7251 7.2815C15.8592 7.39246 15.9438 7.55227 15.9604 7.72576C16.1118 9.19159 15.829 10.6696 15.1471 11.9753C14.4652 13.281 13.4146 14.3565 12.1264 15.0675C11.2438 15.579 10.2631 15.8971 9.24882 16.0009H8.47537Z" fill="url(#paint2_linear_37_273)" stroke="url(#paint3_linear_37_273)" stroke-width="0.5"/>
</g>
<defs>
<linearGradient id="paint0_linear_37_273" x1="4.2561" y1="6.83493" x2="15.1896" y2="6.83493" gradientUnits="userSpaceOnUse">
<stop stop-color="#8A35F2"/>
<stop offset="1" stop-color="#BC4BDF"/>
</linearGradient>
<linearGradient id="paint1_linear_37_273" x1="4.2561" y1="6.83493" x2="15.1896" y2="6.83493" gradientUnits="userSpaceOnUse">
<stop stop-color="#8A35F2"/>
<stop offset="1" stop-color="#BC4BDF"/>
</linearGradient>
<linearGradient id="paint2_linear_37_273" x1="1" y1="8.3733" x2="16.0002" y2="8.3733" gradientUnits="userSpaceOnUse">
<stop stop-color="#8A35F2"/>
<stop offset="1" stop-color="#BC4BDF"/>
</linearGradient>
<linearGradient id="paint3_linear_37_273" x1="1" y1="8.3733" x2="16.0002" y2="8.3733" gradientUnits="userSpaceOnUse">
<stop stop-color="#8A35F2"/>
<stop offset="1" stop-color="#BC4BDF"/>
</linearGradient>
</defs>
</svg>
